<svg xmlns="http://www.w3.org/2000/svg" viewBox="0 0 100 100"><defs><style>.cls-1{fill:#fff;}.cls-2,.cls-3{fill:none;}.cls-3{stroke:#fff;stroke-width:2px;}</style></defs><g id="Layer_1" data-name="Layer 1"><path class="cls-1" d="M37.14,27.72v5.84h1.39a.25.25,0,0,1,.21.1.26.26,0,0,1,.08.21V38.6c0,.21-.09.31-.29.31a.36.36,0,0,1-.23-.08.27.27,0,0,1-.08-.23V34.17H36.85a.32.32,0,0,1-.23-.09.24.24,0,0,1-.09-.21V28H33.17c-.22,0-.32-.09-.32-.29a.28.28,0,0,1,.24-.32h3.76C37.05,27.4,37.14,27.5,37.14,27.72ZM35.43,29a.25.25,0,0,1,.21.1.3.3,0,0,1,.08.21.25.25,0,0,1-.22.29.09.09,0,0,1-.07,0H33.17c-.22,0-.32-.09-.32-.29a.3.3,0,0,1,.08-.21.28.28,0,0,1,.24-.1Zm1.74,11a.27.27,0,0,1-.22.3h-.08a.32.32,0,0,1-.32-.3h0v-4.4a.34.34,0,0,1,.09-.24.29.29,0,0,1,.23-.08.28.28,0,0,1,.3.32ZM38.53,27.4h2.36c.2,0,.3.1.3.32A.26.26,0,0,1,41,28H38.53a.38.38,0,0,1-.23-.08.25.25,0,0,1-.08-.21.31.31,0,0,1,.08-.24A.38.38,0,0,1,38.53,27.4Zm-.31,4.82V29.34a.24.24,0,0,1,.08-.21.29.29,0,0,1,.23-.1h3.41a.28.28,0,0,1,.24.1.24.24,0,0,1,.08.21c0,.2-.1.29-.32.29H38.82v2.59a.26.26,0,0,1-.22.3h-.07a.36.36,0,0,1-.23-.08A.27.27,0,0,1,38.22,32.22Zm3.84-4.83a.27.27,0,0,1,.2.16.3.3,0,0,1,0,.26h0a.3.3,0,0,1-.32.24.64.64,0,0,1-.27-.19.39.39,0,0,1,0-.26h0a.28.28,0,0,1,.3-.27h0A.11.11,0,0,1,42.06,27.39Z"/><path class="cls-1" d="M45.52,33.41a.36.36,0,0,1-.23-.08.31.31,0,0,1-.09-.22V27.73a.27.27,0,0,1,.09-.21.5.5,0,0,1,.23-.09.26.26,0,0,1,.29.22.11.11,0,0,1,0,.08v5.38a.26.26,0,0,1-.22.3Zm0,6.77a.33.33,0,0,1-.23-.1.27.27,0,0,1-.09-.21V34.79a.27.27,0,0,1,.09-.21.37.37,0,0,1,.23-.1h5.56a.28.28,0,0,1,.21.1.25.25,0,0,1,.08.21.25.25,0,0,1-.22.3H45.81v4.73a.24.24,0,0,1-.08.21A.27.27,0,0,1,45.52,40.18Zm1.64-6.75a.26.26,0,0,1-.22-.09.33.33,0,0,1-.1-.23V27.73a.28.28,0,0,1,.32-.3.27.27,0,0,1,.3.22v5.17h5.09c.21,0,.3.1.3.29v5.7a.27.27,0,0,1-.08.22.24.24,0,0,1-.22.09.25.25,0,0,1-.22-.09.35.35,0,0,1-.08-.22V33.43Zm-.32,2.76c0-.2.11-.3.32-.3a.27.27,0,0,1,.3.22v3.83a.26.26,0,0,1-.22.29.11.11,0,0,1-.08,0c-.21,0-.32-.09-.32-.29Zm5.84,3.32a.33.33,0,0,1,.17.18.28.28,0,0,1,0,.25h0a.31.31,0,0,1-.32.22.44.44,0,0,1-.27-.17.39.39,0,0,1,0-.26.28.28,0,0,1,.31-.25h.12ZM52.55,32a.25.25,0,0,1-.3-.21v-4a.35.35,0,0,1,.08-.22.3.3,0,0,1,.22-.1.28.28,0,0,1,.22.1.27.27,0,0,1,.08.22v3.92C52.85,31.87,52.76,32,52.55,32Zm1.64,8.22a.28.28,0,0,1-.21-.1.29.29,0,0,1-.09-.21V29a.27.27,0,0,1,.22-.3h.08a.31.31,0,0,1,.22.09.28.28,0,0,1,.1.21V39.87a.28.28,0,0,1-.1.21A.29.29,0,0,1,54.19,40.18Z"/><path class="cls-1" d="M58.3,33.36a.35.35,0,0,1-.23-.12A.36.36,0,0,1,58,33V27.65a.29.29,0,0,1,.1-.23.31.31,0,0,1,.19-.09.29.29,0,0,1,.21.09.27.27,0,0,1,.08.23v5.1h4.73a.27.27,0,0,1,.22.08.27.27,0,0,1,.09.21.33.33,0,0,1-.31.32Zm0,7a.32.32,0,0,1-.23-.09A.31.31,0,0,1,58,40V34.67a.27.27,0,0,1,.09-.24.29.29,0,0,1,.23-.1h5.05a.25.25,0,0,1,.21.1.23.23,0,0,1,.09.22.21.21,0,0,1-.09.2.35.35,0,0,1-.21.1H58.61v4.73H65a.26.26,0,0,1,.29.22.09.09,0,0,1,0,.07.27.27,0,0,1-.08.22.22.22,0,0,1-.21.09ZM59.81,28a.25.25,0,0,1-.21-.1.27.27,0,0,1-.09-.21.26.26,0,0,1,.22-.29.11.11,0,0,1,.08,0H65a.27.27,0,0,1,.23.08.24.24,0,0,1,.09.21.27.27,0,0,1-.09.21A.26.26,0,0,1,65,28ZM65,29a.26.26,0,0,1,.22.09.28.28,0,0,1,0,.43.35.35,0,0,1-.22.08H60.18v2.07a.31.31,0,0,1-.09.22.32.32,0,0,1-.22.1.25.25,0,0,1-.21-.1.31.31,0,0,1-.09-.22V29.3a.29.29,0,0,1,.09-.21.2.2,0,0,1,.21-.09Zm-5.1,6.67a.35.35,0,0,1,.22.08.32.32,0,0,1,.09.23v2.18h3.75a.32.32,0,0,1,.22.1.32.32,0,0,1,0,.42.31.31,0,0,1-.22.09H59.87a.27.27,0,0,1-.3-.22V36C59.57,35.77,59.67,35.67,59.87,35.67ZM65,38.14a.26.26,0,0,1,.17.17.25.25,0,0,1,0,.24h0a.31.31,0,0,1-.32.23.45.45,0,0,1-.27-.18.39.39,0,0,1,0-.26.3.3,0,0,1,.31-.22Z"/><path class="cls-1" d="M17.18,69.67a.52.52,0,0,1-.58-.43V48.16a.51.51,0,0,1,.43-.58h.15c.41,0,.62.2.62.58V68.47h9.6a.67.67,0,0,1,.47.18.69.69,0,0,1,.15.44c0,.39-.2.58-.62.58Zm2.68-18.26a.51.51,0,0,1,.42-.58h.16a.65.65,0,0,1,.42.16.48.48,0,0,1,.19.41V66.19a.51.51,0,0,1-.19.42.65.65,0,0,1-.42.16.51.51,0,0,1-.58-.43.38.38,0,0,1,0-.15Zm0,20.79a.52.52,0,0,1,.17-.41.66.66,0,0,1,.44-.17h8.89a.52.52,0,0,1,.58.43v.15a.62.62,0,0,1-.16.43.55.55,0,0,1-.42.19H20.51a.6.6,0,0,1-.44-.19.58.58,0,0,1-.18-.43Zm9.54-2.46a.79.79,0,0,1-.54-.37.6.6,0,0,1-.07-.49h0a.61.61,0,0,1,.61-.44h.22a.56.56,0,0,1,.4.33.62.62,0,0,1,0,.5h0a.57.57,0,0,1-.58.47Z"/><path class="cls-1" d="M34.75,73c-.48-.14-.66-.41-.54-.79l8.88-23.9a.63.63,0,0,1,.58-.39h.51a.6.6,0,0,1,.58.39l4.3,13.12a.64.64,0,0,1,0,.47.54.54,0,0,1-.36.3h-.15a.14.14,0,0,1-.09,0,.63.63,0,0,1-.58-.44l-4-12.19L35.33,72.67A.61.61,0,0,1,34.75,73Zm3.4.07a.87.87,0,0,1-.55-.34.68.68,0,0,1-.07-.52.64.64,0,0,1,.62-.48h.21a.74.74,0,0,1,.37.35.66.66,0,0,1,0,.48h0A.65.65,0,0,1,38.15,73.1Zm.65-2c-.49-.14-.66-.4-.55-.79l5-14.83a.66.66,0,0,1,.58-.39H44a.54.54,0,0,1,.35.31.58.58,0,0,1,0,.45l-5,14.87A.6.6,0,0,1,38.8,71.1Zm12.54,0a.51.51,0,0,1-.55-.4L49.9,68H42.7a.49.49,0,0,1-.41-.18.55.55,0,0,1-.17-.44.52.52,0,0,1,.44-.57h7.76a.58.58,0,0,1,.58.39l1,3.14a.56.56,0,0,1,0,.44.6.6,0,0,1-.37.29Zm3.87,2a.59.59,0,0,1-.58-.35l-2.89-7.9h-8a.62.62,0,0,1-.45-.19.63.63,0,0,1-.17-.43c0-.39.22-.58.62-.58h8.46a.58.58,0,0,1,.54.32l3,8.28a.53.53,0,0,1-.24.71l-.13,0Zm-4-10.82a.62.62,0,0,1-.58-.4L47,50.73a.54.54,0,0,1,.24-.72l.13,0h.18a.57.57,0,0,1,.58.4l3.65,11.09a.64.64,0,0,1,0,.47.66.66,0,0,1-.36.3Z"/><path class="cls-1" d="M60,60.28a13.39,13.39,0,0,1,.45-3.45,14.25,14.25,0,0,1,1.3-3.19,12.89,12.89,0,0,1,2.08-2.73,11.28,11.28,0,0,1,2.78-2,.46.46,0,0,1,.3-.07.56.56,0,0,1,.5.3.51.51,0,0,1,0,.48.71.71,0,0,1-.31.35,11,11,0,0,0-2.53,1.85,11.37,11.37,0,0,0-1.84,2.46,12.11,12.11,0,0,0-1.18,2.89,12.3,12.3,0,0,0,.38,7.42,11.73,11.73,0,0,0,2.16,3.67,10.67,10.67,0,0,0,3.38,2.54,9.57,9.57,0,0,0,4.24,1,9.39,9.39,0,0,0,4.23-1,10.68,10.68,0,0,0,3.36-2.57,12,12,0,0,0,2.16-3.67,12.06,12.06,0,0,0-2-11.94A11,11,0,0,0,76.37,50a9.47,9.47,0,0,0-4-1.19v2.57a.51.51,0,0,1-.43.58h-.15a6.69,6.69,0,0,0-3.11.67,7.39,7.39,0,0,0-2.37,1.85,8.92,8.92,0,0,0-1.48,2.64,9.2,9.2,0,0,0,0,6.1,8.36,8.36,0,0,0,1.51,2.64,7.46,7.46,0,0,0,2.36,1.85,6.45,6.45,0,0,0,3,.68,6.69,6.69,0,0,0,3-.68,7.82,7.82,0,0,0,2.37-1.82,8.59,8.59,0,0,0,1.5-2.63,9.43,9.43,0,0,0,.52-3.07,8.82,8.82,0,0,0-1.24-4.67,7.35,7.35,0,0,0-3.39-3,.49.49,0,0,1-.3-.31.51.51,0,0,1,0-.45.59.59,0,0,1,.75-.33,8.17,8.17,0,0,1,2.23,1.43,9.31,9.31,0,0,1,1.68,2A9.8,9.8,0,0,1,80,57.38a10.35,10.35,0,0,1,.37,2.82,10.17,10.17,0,0,1-.62,3.55,9.48,9.48,0,0,1-1.77,3,8.26,8.26,0,0,1-2.71,2.08,8.15,8.15,0,0,1-7,0,9,9,0,0,1-2.71-2.11,9.09,9.09,0,0,1-1.75-3,10.24,10.24,0,0,1-.61-3.55,10.78,10.78,0,0,1,.55-3.38,9.69,9.69,0,0,1,1.61-2.94,9.55,9.55,0,0,1,2.52-2.13,7.24,7.24,0,0,1,3.27-.95V48.17c0-.38.2-.58.61-.58a10.41,10.41,0,0,1,4.74,1.07,12.41,12.41,0,0,1,3.69,2.83,12.91,12.91,0,0,1,2.36,4,13.29,13.29,0,0,1,0,9.46A12.72,12.72,0,0,1,80.15,69a12,12,0,0,1-3.71,2.79,11,11,0,0,1-9.4,0A12.08,12.08,0,0,1,63.33,69,13.22,13.22,0,0,1,61,65,13.45,13.45,0,0,1,60,60.28Zm8.18-11.84a.53.53,0,0,1,.6-.43A.41.41,0,0,1,69,48a.51.51,0,0,1,.36.32.74.74,0,0,1,0,.51.63.63,0,0,1-.62.47,1,1,0,0,1-.56-.38A.44.44,0,0,1,68.19,48.44Z"/></g><g id="Group_224" data-name="Group 224"><g id="Group_220" data-name="Group 220"><g id="Group_214" data-name="Group 214"><g id="Rectangle_205" data-name="Rectangle 205"><path class="cls-2" d="M50,0h0a50,50,0,0,1,50,50h0a50,50,0,0,1-50,50h0A50,50,0,0,1,0,50H0A50,50,0,0,1,50,0Z"/><path class="cls-3" d="M50,1h0A49,49,0,0,1,99,50h0A49,49,0,0,1,50,99h0A49,49,0,0,1,1,50H1A49,49,0,0,1,50,1Z"/></g></g></g></g></svg>