<svg id="Group_223" data-name="Group 223" xmlns="http://www.w3.org/2000/svg" width="100" height="100" viewBox="0 0 100 100">
  <g id="Group_253" data-name="Group 253">
    <g id="Group_221" data-name="Group 221">
      <g id="Group_213" data-name="Group 213">
        <g id="Rectangle_204" data-name="Rectangle 204" fill="none" stroke="#fff" stroke-width="2">
          <rect width="100" height="100" rx="50" stroke="none"/>
          <rect x="1" y="1" width="98" height="98" rx="49" fill="none"/>
        </g>
      </g>
    </g>
    <g id="Group_252" data-name="Group 252" transform="translate(15.629 38.106)">
      <g id="Group_252-2" data-name="Group 252">
        <path id="Path_92" data-name="Path 92" d="M602.559,320.073a5.04,5.04,0,0,1,4-1.863,3.474,3.474,0,0,1,3.374,1.89,5.773,5.773,0,0,1,4.319-1.89,4.286,4.286,0,0,1,3.213,1.161,4.364,4.364,0,0,1,1.134,3.186v9.422h-3.779v-8.585q0-1.943-1.728-1.944a2.882,2.882,0,0,0-2.538,1.7v8.828h-3.779V323.42q0-1.971-1.674-1.971a2.362,2.362,0,0,0-1.458.513,3.72,3.72,0,0,0-1.08,1.323v8.693H598.78v-13.5h3.779v1.593Z" transform="translate(-598.78 -312.271)" fill="#fff"/>
        <path id="Path_93" data-name="Path 93" d="M922.64,319.128a6.768,6.768,0,0,1,2.619,2.511,7.294,7.294,0,0,1,0,7.181,6.762,6.762,0,0,1-2.619,2.511,8.294,8.294,0,0,1-7.586,0,6.747,6.747,0,0,1-2.619-2.511,7.294,7.294,0,0,1,0-7.181,6.758,6.758,0,0,1,2.619-2.511,8.294,8.294,0,0,1,7.586,0Zm-6.357,3.361a4.216,4.216,0,0,0,0,5.481,3.49,3.49,0,0,0,2.578,1.012,3.449,3.449,0,0,0,2.565-1.012,4.258,4.258,0,0,0,0-5.481,3.449,3.449,0,0,0-2.565-1.012A3.491,3.491,0,0,0,916.282,322.489Z" transform="translate(-888.705 -312.271)" fill="#fff"/>
        <path id="Path_94" data-name="Path 94" d="M1158.691,320.235a5.985,5.985,0,0,1,4.481-2.025,4.581,4.581,0,0,1,3.429,1.269,4.475,4.475,0,0,1,1.242,3.266v9.233h-3.779v-8.126a2.585,2.585,0,0,0-.554-1.8,2.1,2.1,0,0,0-1.634-.608,3.2,3.2,0,0,0-1.809.581,4.48,4.48,0,0,0-1.377,1.444v8.5h-3.779v-13.5h3.779v1.755Z" transform="translate(-1114.389 -312.271)" fill="#fff"/>
        <path id="Path_95" data-name="Path 95" d="M1390.441,250.738h-.189v5.669H1386.5V236.7h3.752v10.61h.189l3.833-4.4h4.454l-5.156,5.912,5.453,7.586h-4.454Z" transform="translate(-1329.104 -236.7)" fill="#fff"/>
      </g>
    </g>
  </g>
</svg>
