<svg xmlns="http://www.w3.org/2000/svg" width="100.867" height="36.067" viewBox="0 0 100.867 36.067">
  <g id="Group_3" data-name="Group 3" transform="translate(-538 -889.001)">
    <g id="Group_2" data-name="Group 2" transform="translate(538 889.001)">
      <g id="Group_1" data-name="Group 1" transform="translate(31.995 0)">
        <circle id="Ellipse_1" data-name="Ellipse 1" cx="2.299" cy="2.299" r="2.299" transform="translate(15.642 15.735)" fill="#fff"/>
        <circle id="Ellipse_2" data-name="Ellipse 2" cx="2.299" cy="2.299" r="2.299" transform="translate(31.469 15.735)" fill="#fff"/>
        <circle id="Ellipse_3" data-name="Ellipse 3" cx="2.299" cy="2.299" r="2.299" transform="translate(0 15.735)" fill="#fff"/>
        <circle id="Ellipse_4" data-name="Ellipse 4" cx="2.299" cy="2.299" r="2.299" transform="translate(29.361 7.867)" fill="#fff"/>
        <circle id="Ellipse_5" data-name="Ellipse 5" cx="2.299" cy="2.299" r="2.299" transform="translate(2.108 23.602)" fill="#fff"/>
        <circle id="Ellipse_6" data-name="Ellipse 6" cx="2.299" cy="2.299" r="2.299" transform="translate(23.602 2.108)" fill="#fff"/>
        <circle id="Ellipse_7" data-name="Ellipse 7" cx="2.299" cy="2.299" r="2.299" transform="translate(7.867 29.361)" fill="#fff"/>
        <circle id="Ellipse_8" data-name="Ellipse 8" cx="2.299" cy="2.299" r="2.299" transform="translate(15.735)" fill="#fff"/>
        <circle id="Ellipse_9" data-name="Ellipse 9" cx="2.299" cy="2.299" r="2.299" transform="translate(15.735 31.469)" fill="#fff"/>
        <circle id="Ellipse_10" data-name="Ellipse 10" cx="2.299" cy="2.299" r="2.299" transform="translate(7.867 2.108)" fill="#fff"/>
        <circle id="Ellipse_11" data-name="Ellipse 11" cx="2.299" cy="2.299" r="2.299" transform="translate(23.602 29.361)" fill="#fff"/>
        <circle id="Ellipse_12" data-name="Ellipse 12" cx="2.299" cy="2.299" r="2.299" transform="translate(2.108 7.867)" fill="#fff"/>
        <circle id="Ellipse_13" data-name="Ellipse 13" cx="2.299" cy="2.299" r="2.299" transform="translate(29.361 23.602)" fill="#fff"/>
        <circle id="Ellipse_14" data-name="Ellipse 14" cx="2.299" cy="2.299" r="2.299" transform="translate(9.06 19.535)" fill="#fff"/>
        <circle id="Ellipse_15" data-name="Ellipse 15" cx="2.299" cy="2.299" r="2.299" transform="translate(22.225 11.934)" fill="#fff"/>
        <circle id="Ellipse_16" data-name="Ellipse 16" cx="2.299" cy="2.299" r="2.299" transform="translate(15.642 23.335)" fill="#fff"/>
        <circle id="Ellipse_17" data-name="Ellipse 17" cx="2.299" cy="2.299" r="2.299" transform="translate(15.642 8.134)" fill="#fff"/>
        <circle id="Ellipse_18" data-name="Ellipse 18" cx="2.299" cy="2.299" r="2.299" transform="translate(22.225 19.535)" fill="#fff"/>
        <circle id="Ellipse_19" data-name="Ellipse 19" cx="2.299" cy="2.299" r="2.299" transform="translate(9.06 11.934)" fill="#fff"/>
      </g>
      <path id="Path_1" data-name="Path 1" d="M48.264,68.532h5.717V82.18L70.206,68.532h8.132L64.368,80.127,79.747,97.8H72.259L60.221,83.509,53.981,88.7v9.1H48.264Z" transform="translate(-48.264 -65.133)" fill="#fff"/>
      <path id="Path_2" data-name="Path 2" d="M179.681,68.524v18.16c-.082,8.623-4.394,11.435-13.005,11.435a36.339,36.339,0,0,1-7.252-.644V92.12a24.978,24.978,0,0,0,6.561.926c6.725.047,8.06-2.378,7.979-6.678V73.4H163.1V68.524Z" transform="translate(-89.331 -65.13)" fill="#fff"/>
      <path id="Path_3" data-name="Path 3" d="M199.162,68.532h5.717V97.8h-5.717Z" transform="translate(-104.012 -65.133)" fill="#fff"/>
    </g>
  </g>
</svg>
