<?xml version="1.0" encoding="utf-8"?>
<!-- Generator: Adobe Illustrator 25.2.1, SVG Export Plug-In . SVG Version: 6.00 Build 0)  -->
<svg version="1.1" id="Layer_1" xmlns="http://www.w3.org/2000/svg" xmlns:xlink="http://www.w3.org/1999/xlink" x="0px" y="0px"
	 viewBox="0 0 100.9 36.1" style="enable-background:new 0 0 100.9 36.1;" xml:space="preserve">
<style type="text/css">
	.st0{fill:#280000;}
</style>
<g id="Group_3" transform="translate(-538 -889.001)">
	<g id="Group_2" transform="translate(538 889.001)">
		<g id="Group_1" transform="translate(31.995 0)">
			<circle id="Ellipse_1" class="st0" cx="17.9" cy="18" r="2.3"/>
			<circle id="Ellipse_2" class="st0" cx="33.8" cy="18" r="2.3"/>
			<circle id="Ellipse_3" class="st0" cx="2.3" cy="18" r="2.3"/>
			<circle id="Ellipse_4" class="st0" cx="31.7" cy="10.2" r="2.3"/>
			<circle id="Ellipse_5" class="st0" cx="4.4" cy="25.9" r="2.3"/>
			<circle id="Ellipse_6" class="st0" cx="25.9" cy="4.4" r="2.3"/>
			<circle id="Ellipse_7" class="st0" cx="10.2" cy="31.7" r="2.3"/>
			<circle id="Ellipse_8" class="st0" cx="18" cy="2.3" r="2.3"/>
			<circle id="Ellipse_9" class="st0" cx="18" cy="33.8" r="2.3"/>
			<circle id="Ellipse_10" class="st0" cx="10.2" cy="4.4" r="2.3"/>
			<circle id="Ellipse_11" class="st0" cx="25.9" cy="31.7" r="2.3"/>
			<circle id="Ellipse_12" class="st0" cx="4.4" cy="10.2" r="2.3"/>
			<circle id="Ellipse_13" class="st0" cx="31.7" cy="25.9" r="2.3"/>
			<circle id="Ellipse_14" class="st0" cx="11.4" cy="21.8" r="2.3"/>
			<circle id="Ellipse_15" class="st0" cx="24.5" cy="14.2" r="2.3"/>
			<circle id="Ellipse_16" class="st0" cx="17.9" cy="25.6" r="2.3"/>
			<circle id="Ellipse_17" class="st0" cx="17.9" cy="10.4" r="2.3"/>
			<circle id="Ellipse_18" class="st0" cx="24.5" cy="21.8" r="2.3"/>
			<circle id="Ellipse_19" class="st0" cx="11.4" cy="14.2" r="2.3"/>
		</g>
		<path id="Path_1" class="st0" d="M0,3.4h5.7V17L21.9,3.4h8.1L16.1,15l15.4,17.7H24L12,18.4l-6.2,5.2v9.1H0V3.4z"/>
		<path id="Path_2" class="st0" d="M90.3,3.4v18.2C90.3,30.2,86,33,77.3,33c-2.4,0-4.9-0.2-7.3-0.6V27c2.1,0.6,4.3,0.9,6.6,0.9
			c6.7,0,8.1-2.4,8-6.7v-13H73.8V3.4H90.3z"/>
		<path id="Path_3" class="st0" d="M95.2,3.4h5.7v29.3h-5.7V3.4z"/>
	</g>
</g>
</svg>
