<svg xmlns="http://www.w3.org/2000/svg" width="327.781" height="69.235" viewBox="0 0 327.781 69.235">
  <g id="Group_114" data-name="Group 114" transform="translate(-84.826 -168.052)">
    <path id="Path_72" data-name="Path 72" d="M102.367,181.478H90.673v-12.8H84.826v30.986h5.848V186.784h11.694v12.885h5.847V168.683h-5.847Z" fill="#fff"/>
    <rect id="Rectangle_184" data-name="Rectangle 184" width="5.848" height="30.986" transform="translate(113.358 168.683)" fill="#fff"/>
    <path id="Path_73" data-name="Path 73" d="M148.17,188.516v-4.511H134.888v4.944h7.525v.271c0,3.537-2.22,5.847-6.461,5.847-4.259,0-7-2.743-7-7.092v-7.6c0-4.349,2.743-7.092,7-7.092,4.241,0,6.19,2.472,6.19,5.667v.613h5.847v-.523c0-6.551-4.259-10.99-12.037-10.99-7.8,0-12.849,4.439-12.849,12.4v7.435c0,7.976,5.053,12.4,12.849,12.4C143.73,200.283,148.17,195.861,148.17,188.516Z" fill="#fff"/>
    <path id="Path_74" data-name="Path 74" d="M169.609,199.669h5.848V168.683h-5.848v12.8H157.915v-12.8h-5.829v30.986h5.829V186.784h11.694Z" fill="#fff"/>
    <path id="Path_75" data-name="Path 75" d="M95.455,205.679H84.826v30.986H95.455c8.338,0,12.759-4.241,12.759-12.579v-5.829C108.214,209.92,103.793,205.679,95.455,205.679Zm6.912,18.588c0,4.511-2.129,7.092-6.822,7.092H90.673V210.985h4.872c4.693,0,6.822,2.58,6.822,7.092Z" fill="#fff"/>
    <path id="Path_76" data-name="Path 76" d="M117.778,223.689h13.283v-5.306H117.778v-7.4h14.528v-5.306H111.95v30.986h20.627v-5.306h-14.8Z" fill="#fff"/>
    <path id="Path_77" data-name="Path 77" d="M136.313,236.665h5.829V223.78h13.03v-5.306h-13.03v-7.489h13.914v-5.306H136.313Z" fill="#fff"/>
    <rect id="Rectangle_185" data-name="Rectangle 185" width="5.848" height="30.986" transform="translate(159.792 205.679)" fill="#fff"/>
    <rect id="Rectangle_186" data-name="Rectangle 186" width="5.848" height="31.004" transform="translate(198.357 205.67)" fill="#fff"/>
    <path id="Path_78" data-name="Path 78" d="M187.583,230.736h-.434l-7.489-25.049H169.609v30.986h5.847V211.607h.451l7.472,25.067H193.43V205.688h-5.847Z" fill="#fff"/>
    <path id="Path_79" data-name="Path 79" d="M207.127,210.993h9.385v25.68h5.847v-25.68h9.385V205.67H207.127Z" fill="#fff"/>
    <rect id="Rectangle_187" data-name="Rectangle 187" width="5.848" height="31.004" transform="translate(234.684 205.67)" fill="#fff"/>
    <path id="Path_80" data-name="Path 80" d="M257.189,205.056c-7.8,0-12.759,4.44-12.759,12.4v7.435c0,7.977,4.963,12.4,12.759,12.4,7.778,0,12.741-4.421,12.741-12.4v-7.435C269.93,209.5,264.967,205.056,257.189,205.056Zm6.893,20.014c0,4.259-2.562,7-6.893,7-4.35,0-6.912-2.743-6.912-7v-7.8c0-4.241,2.562-6.984,6.912-6.984,4.331,0,6.893,2.743,6.893,6.984Z" fill="#fff"/>
    <path id="Path_81" data-name="Path 81" d="M406.778,205.795v23.514a1.449,1.449,0,0,1-1.445,1.444H405.3a1.446,1.446,0,0,1-1.371-1.047l-5.684-19.057a6.973,6.973,0,0,0-11.605-2.923,6.883,6.883,0,0,0-2.039,4.908v16.675a1.434,1.434,0,0,1-2.815.4L376.1,210.649a6.968,6.968,0,0,0-13.643,1.985v16.675a1.444,1.444,0,0,1-2.833.4l-5.685-19.057a6.972,6.972,0,0,0-11.6-2.923c-.1.1-.189.205-.281.309-.029.033-.059.063-.087.1-.087.1-.169.211-.251.319-.049.065-.1.129-.146.2-.064.092-.124.186-.184.281s-.115.185-.169.28-.09.164-.132.247q-.09.173-.168.351c-.033.074-.065.148-.1.222-.054.134-.1.27-.148.407-.023.069-.047.137-.067.206-.044.147-.081.3-.115.448-.015.066-.032.13-.045.2-.032.161-.054.325-.075.49-.007.059-.018.118-.024.177-.022.225-.034.452-.034.682v16.675a1.449,1.449,0,0,1-1.445,1.444h-.036a1.446,1.446,0,0,1-1.371-1.047l-5.684-19.057a6.973,6.973,0,0,0-11.605-2.923,6.883,6.883,0,0,0-2.039,4.908v16.675a1.434,1.434,0,0,1-2.815.4l-5.685-19.057a6.968,6.968,0,0,0-13.643,1.985v16.675a1.444,1.444,0,0,1-2.833.4l-5.685-19.057a6.956,6.956,0,0,0-13.625,1.985v24.038h5.829V213.049a1.458,1.458,0,0,1,2.851-.415l5.7,19.075a7.116,7.116,0,0,0,2.509,3.592,6.953,6.953,0,0,0,11.1-5.577V213.049a1.452,1.452,0,0,1,1.462-1.443,1.511,1.511,0,0,1,.866.288,1.448,1.448,0,0,1,.523.758l5.686,19.057a6.943,6.943,0,0,0,6.658,4.963h.018A6.939,6.939,0,0,0,324,229.724V213.049a1.448,1.448,0,0,1,1.444-1.443,1.428,1.428,0,0,1,1.389,1.046l5.7,19.057a6.95,6.95,0,0,0,13.607-1.985V213.049a1.458,1.458,0,0,1,2.851-.415l5.7,19.075A7.116,7.116,0,0,0,357.2,235.3a6.953,6.953,0,0,0,11.1-5.577V213.049a1.452,1.452,0,0,1,1.462-1.443,1.511,1.511,0,0,1,.866.288,1.448,1.448,0,0,1,.523.758l5.686,19.057a6.943,6.943,0,0,0,6.658,4.963h.018a6.939,6.939,0,0,0,6.948-6.948V213.049a1.448,1.448,0,0,1,1.444-1.443,1.428,1.428,0,0,1,1.389,1.046l5.7,19.057a6.95,6.95,0,0,0,13.608-1.985V205.795Z" fill="#fff"/>
  </g>
</svg>
